<?xml version="1.0" standalone="no"?>
<!DOCTYPE svg PUBLIC "-//W3C//DTD SVG 20010904//EN"
 "http://www.w3.org/TR/2001/REC-SVG-20010904/DTD/svg10.dtd">
<svg version="1.0" xmlns="http://www.w3.org/2000/svg"
 width="2560.000000pt" height="2560.000000pt" viewBox="0 0 2560.000000 2560.000000"
 preserveAspectRatio="xMidYMid meet">
<metadata>
Created by potrace 1.14, written by Peter Selinger 2001-2017
</metadata>
<g transform="translate(0.000000,2560.000000) scale(0.100000,-0.100000)"
fill="#000000" stroke="none">
<path d="M13148 21500 c-194 -35 -386 -141 -513 -283 -31 -34 -154 -204 -273
-377 -120 -173 -436 -630 -702 -1015 -266 -385 -646 -934 -843 -1220 -198
-286 -399 -576 -447 -645 -48 -69 -361 -521 -695 -1005 -335 -484 -745 -1077
-912 -1319 -167 -241 -321 -468 -343 -505 -50 -85 -95 -199 -127 -320 -34
-130 -43 -362 -19 -501 57 -326 238 -619 497 -802 54 -39 604 -383 1624 -1018
121 -75 483 -301 805 -502 322 -200 737 -459 922 -574 185 -115 336 -212 335
-216 -2 -7 -843 -1218 -3331 -4798 -296 -426 -712 -1025 -924 -1330 -212 -305
-400 -576 -419 -601 l-33 -47 182 -113 c101 -62 296 -182 433 -268 359 -222
477 -277 705 -327 121 -27 458 -27 580 -1 254 55 475 161 667 319 71 59 117
108 639 678 148 162 416 455 595 650 178 195 786 859 1349 1475 563 616 1195
1307 1404 1535 209 228 500 546 646 705 634 692 1991 2175 2205 2410 180 197
226 263 274 395 60 165 55 393 -12 560 -75 184 -173 287 -442 465 -531 351
-1658 1054 -3200 1998 -319 195 -581 360 -583 365 -2 6 293 440 656 964 363
524 1065 1539 1561 2256 495 717 901 1307 901 1310 0 4 -84 59 -187 123 -104
64 -678 421 -1278 794 -599 373 -1125 695 -1170 716 -44 20 -107 45 -140 54
-69 19 -314 29 -387 15z"/>
<path d="M6249 18584 c-93 -16 -217 -55 -307 -95 -97 -44 -246 -146 -327 -225
-39 -38 -464 -537 -945 -1109 -481 -572 -1185 -1409 -1564 -1860 -380 -451
-777 -923 -883 -1049 -106 -126 -193 -232 -193 -236 0 -4 219 -191 487 -417
269 -225 1160 -975 1981 -1666 821 -691 1521 -1277 1556 -1302 390 -278 966
-287 1364 -21 149 100 197 150 700 749 275 325 558 662 630 747 73 85 131 158
129 162 -1 3 -562 477 -1247 1053 -685 576 -1249 1053 -1255 1060 -6 10 5 30
41 72 28 32 266 315 529 628 264 314 758 900 1097 1304 340 404 618 738 618
742 0 4 -82 77 -182 162 -1389 1168 -1342 1130 -1490 1200 -94 45 -217 83
-325 102 -105 18 -311 18 -414 -1z"/>
<path d="M18185 16509 c-270 -30 -538 -156 -725 -341 -41 -41 -293 -352 -560
-692 -267 -340 -531 -677 -588 -749 -56 -72 -101 -134 -100 -138 3 -7 426
-340 2063 -1623 385 -302 710 -558 722 -570 l22 -21 -490 -625 c-270 -344
-727 -926 -1016 -1294 -428 -545 -522 -671 -511 -681 7 -6 85 -68 173 -137 88
-68 410 -321 717 -561 306 -240 585 -457 621 -482 36 -25 112 -68 169 -95 385
-184 837 -151 1203 89 159 104 182 131 1856 2265 875 1117 1592 2035 1593
2042 1 6 -737 591 -1639 1299 -902 708 -1873 1470 -2158 1694 -284 223 -552
427 -595 453 -210 129 -510 195 -757 167z"/>
</g>
</svg>
